<svg width="67" height="65" viewBox="0 0 67 65" fill="none" xmlns="http://www.w3.org/2000/svg">
<path d="M28.275 28.1395C26.7312 28.1395 25.5125 29.4937 25.5125 31.1458C25.5125 32.7979 26.7583 34.152 28.275 34.152C29.8187 34.152 31.0375 32.7979 31.0375 31.1458C31.0645 29.4937 29.8187 28.1395 28.275 28.1395ZM38.1604 28.1395C36.6166 28.1395 35.3979 29.4937 35.3979 31.1458C35.3979 32.7979 36.6437 34.152 38.1604 34.152C39.7041 34.152 40.9229 32.7979 40.9229 31.1458C40.9229 29.4937 39.7041 28.1395 38.1604 28.1395Z" fill="white"/>
<path d="M51.323 5.41669H15.0313C11.9709 5.41669 9.47925 7.90835 9.47925 10.9959V47.6125C9.47925 50.7 11.9709 53.1917 15.0313 53.1917H45.7438L44.3084 48.1813L47.7751 51.4042L51.0522 54.4375L56.8751 59.5834V10.9959C56.8751 7.90835 54.3834 5.41669 51.323 5.41669ZM40.8688 40.7875C40.8688 40.7875 39.8938 39.6229 39.0813 38.5938C42.6292 37.5917 43.9834 35.3709 43.9834 35.3709C42.873 36.1021 41.8167 36.6167 40.8688 36.9688C39.5147 37.5375 38.2147 37.9167 36.9417 38.1334C34.3417 38.6209 31.9584 38.4854 29.9272 38.1063C28.3834 37.8084 27.0563 37.375 25.9459 36.9417C25.323 36.6979 24.6459 36.4 23.9688 36.0209C23.8876 35.9667 23.8063 35.9396 23.7251 35.8854C23.6709 35.8584 23.6438 35.8313 23.6167 35.8042C23.1292 35.5334 22.8584 35.3438 22.8584 35.3438C22.8584 35.3438 24.1584 37.5104 27.598 38.5396C26.7855 39.5688 25.7834 40.7875 25.7834 40.7875C19.798 40.5979 17.523 36.6709 17.523 36.6709C17.523 27.95 21.423 20.8813 21.423 20.8813C25.323 17.9563 29.0334 18.0375 29.0334 18.0375L29.3042 18.3625C24.4292 19.7709 22.1813 21.9104 22.1813 21.9104C22.1813 21.9104 22.7772 21.5854 23.7792 21.125C26.6772 19.8521 28.9792 19.5 29.9272 19.4188C30.0897 19.3917 30.2251 19.3646 30.3876 19.3646C32.0397 19.1479 33.9084 19.0938 35.8584 19.3104C38.4313 19.6084 41.1938 20.3667 44.0105 21.9104C44.0105 21.9104 41.8709 19.8792 37.2667 18.4709L37.6459 18.0375C37.6459 18.0375 41.3563 17.9563 45.2563 20.8813C45.2563 20.8813 49.1563 27.95 49.1563 36.6709C49.1563 36.6709 46.8542 40.5979 40.8688 40.7875Z" fill="white"/>
</svg>
