<svg width="49" height="50" viewBox="0 0 49 50" fill="none" xmlns="http://www.w3.org/2000/svg">
<path d="M10.6742 11.3208C10.6742 11.3208 10.7145 18.0981 13.66 25.1075C16.686 31.8547 20.8583 36.1887 24.3003 37.9151C27.8568 35.9509 31.2923 32.5415 33.1673 28.8679H23.404C20.8777 26.3943 18.8899 22.2906 18.4336 17.5472H47.0756C45.6633 25.1736 42.6663 32.1094 39.8111 36.5264C35.8482 42.6507 30.4746 47.3248 24.3213 50H24.231C13.9582 45.1642 8.43168 37.5472 4.78494 28.9528C2.44567 23.4453 0 13.4453 0 0H48.3655C48.3733 3.78646 48.1579 7.56905 47.7204 11.3208H10.6742Z" fill="white"/>
</svg>
