<svg width="1440" height="294" viewBox="0 0 1440 294" fill="none" xmlns="http://www.w3.org/2000/svg">
<path fill-rule="evenodd" clip-rule="evenodd" d="M0 158.76L34.8 185.22C68.4 211.68 136.8 264.6 205.2 284.445C274.8 304.29 343.2 291.06 411.6 264.6C480 238.14 548.4 198.45 616.8 198.45C685.2 198.45 754.8 238.14 823.2 251.37C891.6 264.6 960 251.37 1028.4 218.295C1096.8 185.22 1165.2 132.3 1234.8 125.685C1303.2 119.07 1371.6 158.76 1405.2 178.605L1440 198.45V0H1405.2C1371.6 0 1303.2 0 1234.8 0C1165.2 0 1096.8 0 1028.4 0C960 0 891.6 0 823.2 0C754.8 0 685.2 0 616.8 0C548.4 0 480 0 411.6 0C343.2 0 274.8 0 205.2 0C136.8 0 68.4 0 34.8 0H0V158.76Z" fill="#F82A0D"/>
</svg>
