<svg width="100" height="99" viewBox="0 0 100 99" fill="none" xmlns="http://www.w3.org/2000/svg">
<path fill-rule="evenodd" clip-rule="evenodd" d="M50 100C77.6142 100 100 77.6142 100 50C100 22.3858 77.6142 0 50 0C22.3858 0 0 22.3858 0 50C0 77.6142 22.3858 100 50 100ZM83.1932 50.5286C83.1932 46.4766 79.9264 43.188 75.9012 43.188C73.9178 43.188 72.1678 43.9514 70.8844 45.2434C65.9258 41.6612 59.0422 39.3122 51.4584 39.0186L54.7836 23.3392L65.5758 25.6294C65.6924 28.3894 67.9676 30.621 70.7676 30.621C73.6262 30.621 75.9596 28.272 75.9596 25.3946C75.9596 22.517 73.6262 20.168 70.7676 20.168C68.726 20.168 66.9758 21.3426 66.1592 23.1042L54.0836 20.5204C53.7336 20.4616 53.3834 20.5204 53.0918 20.6966C52.8002 20.8728 52.6252 21.1664 52.5084 21.5188L48.8332 39.0186C41.0746 39.2534 34.1326 41.5438 29.1156 45.2434C27.8322 44.0102 26.0238 43.188 24.0988 43.188C20.0736 43.188 16.8067 46.4766 16.8067 50.5286C16.8067 53.5234 18.5568 56.0486 21.1236 57.223C21.007 57.9278 20.9486 58.6912 20.9486 59.4546C20.9486 70.7296 33.9576 79.832 50.0584 79.832C66.1592 79.832 79.168 70.7296 79.168 59.4546C79.168 58.6912 79.1098 57.9866 78.993 57.2818C81.3848 56.1074 83.1932 53.5234 83.1932 50.5286ZM33.3158 55.755C33.3158 52.8774 35.6494 50.5286 38.5078 50.5286C41.3662 50.5286 43.6996 52.8774 43.6996 55.755C43.6996 58.6324 41.3662 60.9814 38.5078 60.9814C35.6494 60.9814 33.3158 58.6324 33.3158 55.755ZM62.309 69.5552C58.7504 73.1374 51.9834 73.3722 50 73.3722C48.0166 73.3722 41.1912 73.0786 37.691 69.5552C37.166 69.0266 37.166 68.1458 37.691 67.6172C38.216 67.0888 39.0912 67.0888 39.6162 67.6172C41.833 69.8488 46.6166 70.671 50.0584 70.671C53.5002 70.671 58.2254 69.8488 60.5006 67.6172C61.0256 67.0888 61.9006 67.0888 62.4256 67.6172C62.834 68.2046 62.834 69.0266 62.309 69.5552ZM61.3756 60.9814C58.517 60.9814 56.1836 58.6324 56.1836 55.755C56.1836 52.8774 58.517 50.5286 61.3756 50.5286C64.234 50.5286 66.5674 52.8774 66.5674 55.755C66.5674 58.6324 64.234 60.9814 61.3756 60.9814Z" fill="white"/>
</svg>
