<svg width="50" height="50" viewBox="0 0 50 50" fill="none" xmlns="http://www.w3.org/2000/svg">
<path fill-rule="evenodd" clip-rule="evenodd" d="M25 50C38.8071 50 50 38.8071 50 25C50 11.1929 38.8071 0 25 0C11.1929 0 0 11.1929 0 25C0 38.8071 11.1929 50 25 50ZM41.5966 25.2643C41.5966 23.2383 39.9632 21.594 37.9506 21.594C36.9589 21.594 36.0839 21.9757 35.4422 22.6217C32.9629 20.8306 29.5211 19.6561 25.7292 19.5093L27.3918 11.6696L32.7879 12.8147C32.8462 14.1947 33.9838 15.3105 35.3838 15.3105C36.8131 15.3105 37.9798 14.136 37.9798 12.6973C37.9798 11.2585 36.8131 10.084 35.3838 10.084C34.363 10.084 33.4879 10.6713 33.0796 11.5521L27.0418 10.2602C26.8668 10.2308 26.6917 10.2602 26.5459 10.3483C26.4001 10.4364 26.3126 10.5832 26.2542 10.7594L24.4166 19.5093C20.5373 19.6267 17.0663 20.7719 14.5578 22.6217C13.9161 22.0051 13.0119 21.594 12.0494 21.594C10.0368 21.594 8.40336 23.2383 8.40336 25.2643C8.40336 26.7617 9.2784 28.0243 10.5618 28.6115C10.5035 28.9639 10.4743 29.3456 10.4743 29.7273C10.4743 35.3648 16.9788 39.916 25.0292 39.916C33.0796 39.916 39.584 35.3648 39.584 29.7273C39.584 29.3456 39.5549 28.9933 39.4965 28.6409C40.6924 28.0537 41.5966 26.7617 41.5966 25.2643ZM16.6579 27.8775C16.6579 26.4387 17.8247 25.2643 19.2539 25.2643C20.6831 25.2643 21.8498 26.4387 21.8498 27.8775C21.8498 29.3162 20.6831 30.4907 19.2539 30.4907C17.8247 30.4907 16.6579 29.3162 16.6579 27.8775ZM31.1545 34.7776C29.3752 36.5687 25.9917 36.6861 25 36.6861C24.0083 36.6861 20.5956 36.5393 18.8455 34.7776C18.583 34.5133 18.583 34.0729 18.8455 33.8086C19.108 33.5444 19.5456 33.5444 19.8081 33.8086C20.9165 34.9244 23.3083 35.3355 25.0292 35.3355C26.7501 35.3355 29.1127 34.9244 30.2503 33.8086C30.5128 33.5444 30.9503 33.5444 31.2128 33.8086C31.417 34.1023 31.417 34.5133 31.1545 34.7776ZM30.6878 30.4907C29.2585 30.4907 28.0918 29.3162 28.0918 27.8775C28.0918 26.4387 29.2585 25.2643 30.6878 25.2643C32.117 25.2643 33.2837 26.4387 33.2837 27.8775C33.2837 29.3162 32.117 30.4907 30.6878 30.4907Z" fill="white"/>
</svg>
