<svg width="50" height="50" viewBox="0 0 50 50" fill="none" xmlns="http://www.w3.org/2000/svg">
<path d="M49.884 22.6669C49.9526 23.4224 49.9999 24.1846 49.9999 24.9584C49.9999 24.1846 49.9526 23.4229 49.884 22.6669Z" fill="white"/>
<path d="M12.7948 22.5351C12.7948 22.5351 5.84234 48.1068 33.7086 48.3293C42.4517 45.0803 48.8943 37.1146 49.8707 27.5111C49.9381 26.8468 49.9582 26.1692 49.9733 25.4904C49.976 25.3118 50 25.1383 50 24.9586C50 24.1852 49.9526 23.4225 49.8841 22.667C42.522 51.5984 9.95253 40.2663 12.7948 22.5351Z" fill="white"/>
<path d="M27.2036 13.0434C27.2036 13.0434 1.25835 5.8104 1.65739 34.0514C2.98736 37.4641 5.05133 40.5439 7.70369 43.0735C7.81515 43.1787 7.93052 43.2783 8.04309 43.3817C8.79333 44.0722 9.58508 44.7164 10.4139 45.3106C10.5426 45.4024 10.6636 45.5036 10.7929 45.5932C11.6696 46.1917 12.5838 46.7336 13.5299 47.2155C13.8046 47.3568 14.0872 47.4859 14.3658 47.6177C15.1799 48.0004 16.0144 48.3384 16.8654 48.6303C17.0744 48.7015 17.2739 48.7905 17.4857 48.8567C18.5059 49.1681 19.5452 49.4134 20.5972 49.5911C20.9154 49.6467 21.237 49.6934 21.5591 49.7379C22.6504 49.8953 23.7508 49.9806 24.8534 49.9933C24.8957 49.9933 24.9364 50 24.9788 50C25.8103 50 26.6312 49.9555 27.441 49.8759C-1.66978 42.9456 9.39514 10.4508 27.2036 13.0434Z" fill="white"/>
<path d="M37.3167 26.4362C37.3167 26.4362 43.4549 0.603152 15.8244 1.757C6.55903 5.41048 0 14.4098 0 24.9564C0.00861608 26.0921 0.0944541 27.2259 0.256922 28.35C6.07194 -0.876714 39.2004 8.58885 37.3167 26.4362Z" fill="white"/>
<path d="M24.0498 37.553C24.0498 37.553 50.0402 40.94 48.4134 16.2724C44.8761 6.77734 35.7428 0 25.0001 0C23.4789 0.00586824 21.9614 0.149812 20.4663 0.430052C49.4266 3.97895 41.8995 37.8056 24.0498 37.553Z" fill="white"/>
<path d="M32.215 24.9591C32.215 26.3418 31.8042 27.6934 31.0347 28.843C30.2651 29.9926 29.1713 30.8886 27.8916 31.4176C26.6119 31.9467 25.2038 32.085 23.8454 31.8151C22.4869 31.5451 21.2392 30.8792 20.26 29.9013C19.2807 28.9234 18.6139 27.6777 18.344 26.3215C18.0741 24.9654 18.213 23.5598 18.7434 22.2825C19.2738 21.0052 20.1716 19.9136 21.3235 19.1457C22.4754 18.3779 23.8295 17.9683 25.2146 17.9687C27.0715 17.9691 28.8521 18.7058 30.1649 20.0168C31.4777 21.3277 32.2151 23.1055 32.215 24.9591Z" fill="white"/>
</svg>
