<svg xmlns="http://www.w3.org/2000/svg" width="119" height="112" fill="none" viewBox="0 0 119 112"><path fill="#fff" d="M50.2198 51.9492C47.4778 51.9492 45.3132 54.4493 45.3132 57.4993C45.3132 60.5493 47.5259 63.0492 50.2198 63.0492C52.9616 63.0492 55.1263 60.5493 55.1263 57.4993C55.1742 54.4493 52.9616 51.9492 50.2198 51.9492ZM67.7774 51.9492C65.0354 51.9492 62.8709 54.4493 62.8709 57.4993C62.8709 60.5493 65.0836 63.0492 67.7774 63.0492C70.5192 63.0492 72.6839 60.5493 72.6839 57.4993C72.6839 54.4493 70.5192 51.9492 67.7774 51.9492Z"/><path fill="#fff" d="M91.1558 9.99902H26.6974C21.2618 9.99902 16.8363 14.599 16.8363 20.2991V87.8989C16.8363 93.5989 21.2618 98.1989 26.6974 98.1989H81.2465L78.697 88.949L84.8543 94.8989L90.6749 100.499L101.017 109.999V20.2991C101.017 14.599 96.5915 9.99902 91.1558 9.99902ZM72.5879 75.2989C72.5879 75.2989 70.8562 73.1489 69.4131 71.249C75.7146 69.399 78.1198 65.299 78.1198 65.299C76.1476 66.6489 74.2715 67.599 72.5879 68.249C70.1829 69.2989 67.8739 69.999 65.6129 70.399C60.995 71.299 56.762 71.0489 53.1543 70.349C50.4123 69.799 48.0553 68.9989 46.083 68.199C44.9767 67.7489 43.7741 67.1989 42.5715 66.499C42.4273 66.399 42.2829 66.3489 42.1386 66.2489C42.0424 66.199 41.9942 66.149 41.9461 66.099C41.0802 65.599 40.5993 65.249 40.5993 65.249C40.5993 65.249 42.9082 69.2489 49.0174 71.1489C47.5743 73.049 45.7944 75.2989 45.7944 75.2989C35.1636 74.9489 31.123 67.699 31.123 67.699C31.123 51.5989 38.0498 38.549 38.0498 38.549C44.9767 33.149 51.5668 33.299 51.5668 33.299L52.0478 33.899C43.3892 36.4991 39.3967 40.4489 39.3967 40.4489C39.3967 40.4489 40.4551 39.8489 42.2347 38.9989C47.3819 36.649 51.4706 35.999 53.1543 35.849C53.4429 35.799 53.6834 35.749 53.972 35.749C56.9064 35.3489 60.2254 35.249 63.6888 35.6489C68.2586 36.1991 73.1651 37.599 78.1679 40.4489C78.1679 40.4489 74.3678 36.699 66.1901 34.0991L66.8637 33.299C66.8637 33.299 73.4538 33.149 80.3806 38.549C80.3806 38.549 87.3075 51.5989 87.3075 67.699C87.3075 67.699 83.2187 74.9489 72.5879 75.2989Z"/></svg>
