<svg xmlns="http://www.w3.org/2000/svg" width="100" height="100" fill="none" viewBox="0 0 100 100"><path fill="#fff" fill-rule="evenodd" d="M50 0C22.375 0 0 22.941 0 51.2646C0 73.9494 14.3125 93.1094 34.1876 99.902C36.6876 100.351 37.625 98.8126 37.625 97.467C37.625 96.2494 37.5624 92.2124 37.5624 87.919C25 90.29 21.75 84.779 20.75 81.8954C20.1876 80.4214 17.75 75.8718 15.625 74.6542C13.875 73.693 11.375 71.322 15.5625 71.258C19.5 71.1938 22.3124 74.9746 23.25 76.5126C27.75 84.2664 34.9376 82.0876 37.8124 80.7418C38.25 77.4096 39.5624 75.1668 41 73.8852C29.875 72.6036 18.25 68.182 18.25 48.5732C18.25 42.9982 20.1876 38.3844 23.375 34.796C22.875 33.5142 21.125 28.2596 23.875 21.2108C23.875 21.2108 28.0624 19.8651 37.625 26.4654C41.625 25.312 45.875 24.7352 50.125 24.7352C54.375 24.7352 58.625 25.312 62.625 26.4654C72.1876 19.801 76.375 21.2108 76.375 21.2108C79.125 28.2596 77.375 33.5142 76.875 34.796C80.0624 38.3844 82 42.9342 82 48.5732C82 68.2462 70.3124 72.6036 59.1876 73.8852C61 75.4872 62.5624 78.5632 62.5624 83.3692C62.5624 90.2258 62.5 95.7368 62.5 97.467C62.5 98.8126 63.4376 100.415 65.9376 99.902C85.6876 93.1094 100 73.8852 100 51.2646C100 22.941 77.625 0 50 0Z" clip-rule="evenodd"/></svg>