<svg xmlns="http://www.w3.org/2000/svg" width="100" height="100" fill="none" viewBox="0 0 100 100"><path fill="#fff" d="M99.7681 45.3369C99.9053 46.8479 99.9999 48.3723 99.9999 49.9199C99.9999 48.3723 99.9053 46.8489 99.7681 45.3369Z"/><path fill="#fff" d="M25.5887 45.0684C25.5887 45.0684 11.6838 96.2116 67.4163 96.6566C84.9025 90.1586 97.7877 74.2273 99.7405 55.0203C99.8753 53.6917 99.9155 52.3365 99.9457 50.9789C99.9511 50.6217 99.9991 50.2747 99.9991 49.9153C99.9991 48.3685 99.9043 46.8432 99.7673 45.3322C85.0431 103.195 19.9041 80.5306 25.5887 45.0684Z"/><path fill="#fff" d="M54.4066 26.0738C54.4066 26.0738 2.51609 11.6078 3.31417 68.0898C5.97411 74.9152 10.102 81.0748 15.4068 86.134C15.6297 86.3444 15.8604 86.5436 16.0856 86.7504C17.586 88.1314 19.1695 89.4198 20.8272 90.6082C21.0846 90.7918 21.3266 90.9942 21.5852 91.1734C23.3386 92.3704 25.167 93.4542 27.0592 94.418C27.6086 94.7006 28.1738 94.9588 28.731 95.2224C30.3592 95.9878 32.0282 96.6638 33.7302 97.2476C34.1482 97.39 34.5472 97.568 34.9708 97.7004C37.0112 98.3232 39.0898 98.8138 41.1938 99.1692C41.8302 99.2804 42.4734 99.3738 43.1176 99.4628C45.3002 99.7776 47.501 99.9482 49.7062 99.9736C49.7908 99.9736 49.8722 99.987 49.957 99.987C51.62 99.987 53.2618 99.898 54.8814 99.7388C-3.34017 85.8782 18.7897 20.8886 54.4066 26.0738Z"/><path fill="#fff" d="M74.6334 52.8758C74.6334 52.8758 86.9098 1.20975 31.6488 3.51745C13.1181 10.8244 0 28.823 0 49.9162C0.0172322 52.1876 0.188908 54.4552 0.513844 56.7034C12.1439 -1.74998 78.4008 17.1811 74.6334 52.8758Z"/><path fill="#fff" d="M48.0972 75.106C48.0972 75.106 100.078 81.88 96.8242 32.5448C89.7496 13.5547 71.4831 0 49.9977 0C46.9554 0.0117365 43.9204 0.299624 40.9302 0.860104C98.8506 7.9579 83.7964 75.6112 48.0972 75.106Z"/><path fill="#fff" d="M64.0108 49.9808C64.0108 52.7463 63.1892 55.4495 61.6502 57.7487C60.111 60.0479 57.9234 61.8399 55.3639 62.8979C52.8045 63.9561 49.9883 64.2327 47.2715 63.6929C44.5544 63.1529 42.059 61.8211 40.1006 59.8653C38.142 57.9095 36.8084 55.4181 36.2686 52.7057C35.7287 49.9934 36.0066 47.1822 37.0674 44.6276C38.1282 42.073 39.9238 39.8898 42.2276 38.354C44.5314 36.8184 47.2397 35.9992 50.0099 36C53.7237 36.0008 57.285 37.4742 59.9106 40.0962C62.5362 42.718 64.011 46.2736 64.0108 49.9808Z"/></svg>