<svg xmlns="http://www.w3.org/2000/svg" width="250" height="204" fill="none" viewBox="0 0 250 204"><path fill="#fff" d="M78.6001 203.6C172.9 203.6 224.5 125.4 224.5 57.7C224.5 55.5 224.5 53.3 224.4 51.1C234.4 43.9 243.1 34.8 250 24.5C240.8 28.6 230.9 31.3 220.5 32.6C231.1 26.3 239.2 16.2 243.1 4.2C233.2 10.1 222.2 14.3 210.5 16.6C201.1 6.6 187.8 0.400002 173.1 0.400002C144.8 0.400002 121.8 23.4 121.8 51.7C121.8 55.7 122.3 59.6 123.1 63.4C80.5001 61.3 42.7001 40.8 17.4001 9.8C13.0001 17.4 10.5001 26.2 10.5001 35.6C10.5001 53.4 19.6001 69.1 33.3001 78.3C24.9001 78 17.0001 75.7 10.1001 71.9C10.1001 72.1 10.1001 72.3 10.1001 72.6C10.1001 97.4 27.8001 118.2 51.2001 122.9C46.9001 124.1 42.4001 124.7 37.7001 124.7C34.4001 124.7 31.2001 124.4 28.1001 123.8C34.6001 144.2 53.6001 159 76.0001 159.4C58.4001 173.2 36.3001 181.4 12.3001 181.4C8.2001 181.4 4.1001 181.2 0.100098 180.7C22.7001 195.1 49.7001 203.6 78.6001 203.6Z"/></svg>
